<svg width="376" height="112" viewBox="0 0 376 112" fill="none" xmlns="http://www.w3.org/2000/svg">
<path d="M130.749 63.0453C134.118 63.0453 137.07 61.9036 139.576 59.6203C140.3 58.9798 141.163 58.6735 142.138 58.7014C143.112 58.7571 143.947 59.1469 144.616 59.8709C145.284 60.5949 145.59 61.4581 145.535 62.4605C145.507 63.4351 145.117 64.2705 144.365 64.9388C140.495 68.4474 135.956 70.2016 130.749 70.2016C125.152 70.2016 120.362 68.2246 116.408 64.2427C112.426 60.2886 110.449 55.4991 110.449 49.9022C110.449 44.3052 112.426 39.5436 116.408 35.5616C120.362 31.6076 125.152 29.6305 130.749 29.6305C135.622 29.6305 139.91 31.162 143.641 34.2529C144.393 34.8933 144.839 35.7009 144.922 36.6755C145.006 37.6501 144.755 38.5411 144.115 39.293C143.502 40.0448 142.694 40.4903 141.72 40.6017C140.745 40.6852 139.854 40.4346 139.074 39.7942C136.652 37.7893 133.895 36.7868 130.749 36.7868C127.129 36.7868 124.038 38.0677 121.448 40.6295C118.886 43.1913 117.605 46.2822 117.605 49.9022C117.605 53.5221 118.886 56.613 121.448 59.2026C124.038 61.7644 127.129 63.0453 130.749 63.0453ZM173.547 37.3159H158.372V46.2544H169.9C170.902 46.2544 171.737 46.6164 172.434 47.3125C173.13 48.0086 173.492 48.844 173.492 49.8186C173.492 50.8211 173.13 51.6564 172.434 52.3526C171.737 53.0487 170.902 53.4107 169.9 53.4107H158.372V62.5162H173.547C174.55 62.5162 175.385 62.8504 176.081 63.5465C176.778 64.2427 177.14 65.1059 177.14 66.0805C177.14 67.0829 176.778 67.9183 176.081 68.6144C175.385 69.3106 174.55 69.6726 173.547 69.6726H154.807C153.805 69.6726 152.969 69.3106 152.273 68.6144C151.577 67.9183 151.215 67.0829 151.215 66.0805V33.7517C151.215 32.7492 151.577 31.9139 152.273 31.2177C152.969 30.5216 153.805 30.1596 154.807 30.1596H173.547C174.55 30.1596 175.385 30.5216 176.081 31.2177C176.778 31.9139 177.14 32.7492 177.14 33.7517C177.14 34.7263 176.778 35.5616 176.081 36.2578C175.385 36.9539 174.55 37.3159 173.547 37.3159ZM209.775 31.1899C210.471 30.4937 211.334 30.1596 212.309 30.1596C213.283 30.1596 214.146 30.4937 214.843 31.1899C215.539 31.886 215.873 32.7492 215.873 33.7238V66.0805C215.873 66.8323 215.65 67.5285 215.232 68.1689C214.787 68.7815 214.202 69.227 213.506 69.4777C212.782 69.7283 212.058 69.7283 211.334 69.5333C210.582 69.3384 209.997 68.9207 209.524 68.336L189.893 43.9153V66.0805C189.893 67.0829 189.531 67.9183 188.835 68.6144C188.139 69.3106 187.303 69.6726 186.329 69.6726C185.326 69.6726 184.491 69.3106 183.795 68.6144C183.098 67.9183 182.736 67.0829 182.736 66.0805V33.7238C182.736 32.972 182.959 32.2758 183.405 31.6632C183.822 31.0506 184.407 30.6051 185.131 30.3545C185.827 30.1039 186.551 30.1039 187.303 30.2988C188.027 30.4937 188.64 30.9114 189.113 31.4962L208.716 55.9168V33.7238C208.716 32.7492 209.078 31.886 209.775 31.1899ZM222.249 30.1596H244.972C245.946 30.1596 246.809 30.5216 247.506 31.2177C248.202 31.9139 248.564 32.7492 248.564 33.7517C248.564 34.7263 248.202 35.5616 247.506 36.2578C246.809 36.9539 245.946 37.3159 244.972 37.3159H237.175V66.0805C237.175 67.0829 236.841 67.9183 236.144 68.6144C235.448 69.3106 234.585 69.6726 233.611 69.6726C232.636 69.6726 231.773 69.3106 231.077 68.6144C230.38 67.9183 230.018 67.0829 230.018 66.0805V37.3159H222.249C221.247 37.3159 220.412 36.9539 219.716 36.2578C219.019 35.5616 218.657 34.7263 218.657 33.7517C218.657 32.7492 219.019 31.9139 219.716 31.2177C220.412 30.5216 221.247 30.1596 222.249 30.1596ZM258.226 49.2895H265.911C267.554 49.2617 268.947 48.6769 270.116 47.5074C271.258 46.3379 271.843 44.9456 271.843 43.3027C271.843 41.6598 271.258 40.2676 270.116 39.098C268.947 37.9285 267.554 37.3438 265.939 37.3159H258.226V49.2895ZM275.184 34.058C277.718 36.6198 278.999 39.7106 278.999 43.3027C278.999 45.9481 278.275 48.3985 276.799 50.5983C275.351 52.7424 273.458 54.3296 271.091 55.3599L277.551 63.9364C278.164 64.716 278.386 65.6071 278.247 66.5817C278.108 67.5563 277.662 68.3638 276.883 68.9486C276.075 69.5333 275.184 69.784 274.209 69.6447C273.235 69.5055 272.455 69.0321 271.843 68.2524L262.932 56.4459H258.226V66.0805C258.226 67.0829 257.864 67.9183 257.168 68.6144C256.472 69.3106 255.636 69.6726 254.662 69.6726C253.659 69.6726 252.824 69.3106 252.128 68.6144C251.432 67.9183 251.07 67.0829 251.07 66.0805V33.7238C251.07 32.7492 251.432 31.886 252.128 31.1899C252.824 30.4937 253.659 30.1596 254.662 30.1596H254.829L255.024 30.1874L255.191 30.1596H255.386H265.967C269.559 30.1874 272.622 31.4683 275.184 34.058ZM285.654 31.2177C286.35 30.5216 287.186 30.1596 288.188 30.1596C289.163 30.1596 289.998 30.5216 290.694 31.2177C291.39 31.9139 291.752 32.7492 291.752 33.7517V66.0805C291.752 67.0829 291.39 67.9183 290.694 68.6144C289.998 69.3106 289.163 69.6726 288.188 69.6726C287.186 69.6726 286.35 69.3106 285.654 68.6144C284.958 67.9183 284.596 67.0829 284.596 66.0805V33.7517C284.596 32.7492 284.958 31.9139 285.654 31.2177ZM315.978 63.0453C319.347 63.0453 322.299 61.9036 324.805 59.6203C325.529 58.9798 326.392 58.6735 327.367 58.7014C328.341 58.7571 329.177 59.1469 329.845 59.8709C330.513 60.5949 330.82 61.4581 330.764 62.4605C330.736 63.4351 330.346 64.2705 329.595 64.9388C325.724 68.4474 321.185 70.2016 315.978 70.2016C310.381 70.2016 305.592 68.2246 301.637 64.2427C297.656 60.2886 295.679 55.4991 295.679 49.9022C295.679 44.3052 297.656 39.5436 301.637 35.5616C305.592 31.6076 310.381 29.6305 315.978 29.6305C320.851 29.6305 325.139 31.162 328.871 34.2529C329.622 34.8933 330.068 35.7009 330.151 36.6755C330.235 37.6501 329.984 38.5411 329.344 39.293C328.731 40.0448 327.924 40.4903 326.949 40.6017C325.975 40.6852 325.084 40.4346 324.304 39.7942C321.881 37.7893 319.125 36.7868 315.978 36.7868C312.358 36.7868 309.267 38.0677 306.678 40.6295C304.116 43.1913 302.835 46.2822 302.835 49.9022C302.835 53.5221 304.116 56.613 306.678 59.2026C309.267 61.7644 312.358 63.0453 315.978 63.0453ZM345.355 55.6105H357.217L351.286 42.4395L345.355 55.6105ZM342.125 62.7669L339.953 67.5563C339.535 68.4474 338.895 69.06 337.976 69.422C337.057 69.784 336.138 69.7561 335.219 69.3384C334.328 68.9207 333.716 68.2803 333.354 67.3614C332.992 66.4425 333.02 65.5236 333.437 64.6047L348.028 32.248C348.613 30.8557 349.699 30.1596 351.286 30.1596C352.874 30.1596 353.959 30.8557 354.544 32.248L369.135 64.6047C369.553 65.5236 369.581 66.4425 369.219 67.3614C368.857 68.2803 368.244 68.9207 367.325 69.3384C366.434 69.7561 365.515 69.784 364.597 69.422C363.678 69.06 363.009 68.4474 362.592 67.5563L360.448 62.739L360.364 62.7669H360.308H342.125Z" fill="white"/>
<path d="M136.616 91.598C136.616 92.4909 136.393 93.2533 135.947 93.8852C135.507 94.5103 134.889 94.9876 134.092 95.3173C133.295 95.647 132.358 95.8119 131.279 95.8119C130.709 95.8119 130.17 95.7844 129.662 95.7294C129.154 95.6745 128.687 95.5955 128.261 95.4925C127.835 95.3894 127.46 95.2624 127.138 95.1113V93.4319C127.653 93.6448 128.281 93.844 129.023 94.0295C129.765 94.208 130.541 94.2973 131.352 94.2973C132.107 94.2973 132.746 94.1977 133.268 93.9986C133.79 93.7925 134.185 93.5006 134.453 93.1228C134.727 92.7382 134.865 92.278 134.865 91.7422C134.865 91.2271 134.751 90.7978 134.525 90.4544C134.298 90.1041 133.92 89.7881 133.391 89.5065C132.869 89.218 132.155 88.9124 131.248 88.5895C130.61 88.3629 130.046 88.1156 129.559 87.8477C129.071 87.573 128.662 87.2639 128.333 86.9205C128.003 86.577 127.752 86.1787 127.581 85.7253C127.416 85.272 127.333 84.7534 127.333 84.1696C127.333 83.366 127.536 82.6791 127.941 82.109C128.353 81.532 128.92 81.0925 129.641 80.7902C130.369 80.4812 131.204 80.3266 132.145 80.3266C132.948 80.3266 133.69 80.4022 134.37 80.5533C135.057 80.7044 135.686 80.907 136.256 81.1611L135.71 82.6654C135.167 82.4387 134.59 82.2498 133.979 82.0987C133.374 81.9476 132.749 81.872 132.104 81.872C131.458 81.872 130.912 81.9682 130.465 82.1605C130.026 82.346 129.689 82.6104 129.456 82.9538C129.222 83.2973 129.105 83.706 129.105 84.1799C129.105 84.7088 129.215 85.1484 129.435 85.4987C129.662 85.849 130.019 86.1615 130.507 86.4362C131.001 86.7041 131.654 86.9857 132.464 87.2811C133.35 87.6039 134.102 87.9473 134.721 88.3114C135.339 88.6685 135.809 89.1081 136.132 89.6301C136.455 90.1453 136.616 90.8012 136.616 91.598ZM149.176 89.9392C149.176 90.8665 149.055 91.6941 148.815 92.4222C148.575 93.1503 148.228 93.765 147.774 94.2664C147.321 94.7678 146.772 95.1525 146.126 95.4204C145.487 95.6814 144.762 95.8119 143.952 95.8119C143.196 95.8119 142.503 95.6814 141.871 95.4204C141.246 95.1525 140.703 94.7678 140.243 94.2664C139.79 93.765 139.436 93.1503 139.182 92.4222C138.934 91.6941 138.811 90.8665 138.811 89.9392C138.811 88.7029 139.02 87.652 139.439 86.7865C139.858 85.9142 140.456 85.2514 141.232 84.7981C142.015 84.3379 142.946 84.1078 144.024 84.1078C145.054 84.1078 145.954 84.3379 146.723 84.7981C147.5 85.2583 148.101 85.9245 148.526 86.7968C148.959 87.6623 149.176 88.7097 149.176 89.9392ZM140.583 89.9392C140.583 90.8459 140.703 91.6323 140.944 92.2986C141.184 92.9648 141.555 93.48 142.056 93.844C142.558 94.208 143.203 94.3901 143.993 94.3901C144.776 94.3901 145.418 94.208 145.92 93.844C146.428 93.48 146.802 92.9648 147.043 92.2986C147.283 91.6323 147.403 90.8459 147.403 89.9392C147.403 89.0394 147.283 88.2633 147.043 87.6108C146.802 86.9514 146.432 86.4431 145.93 86.0859C145.429 85.7288 144.78 85.5502 143.983 85.5502C142.808 85.5502 141.946 85.9383 141.397 86.7144C140.854 87.4906 140.583 88.5655 140.583 89.9392ZM153.853 95.6058H152.132V79.5745H153.853V95.6058ZM166.793 84.3138V95.6058H165.392L165.145 94.0192H165.052C164.819 94.4107 164.517 94.7404 164.146 95.0082C163.775 95.2761 163.356 95.4753 162.889 95.6058C162.428 95.7432 161.937 95.8119 161.415 95.8119C160.522 95.8119 159.774 95.6676 159.169 95.3791C158.565 95.0907 158.108 94.6442 157.799 94.0398C157.497 93.4353 157.346 92.6592 157.346 91.7113V84.3138H159.077V91.5877C159.077 92.5287 159.29 93.2327 159.715 93.6998C160.141 94.16 160.79 94.3901 161.663 94.3901C162.501 94.3901 163.167 94.2321 163.661 93.9161C164.163 93.6002 164.523 93.1365 164.743 92.5252C164.963 91.9071 165.073 91.1515 165.073 90.2586V84.3138H166.793ZM174.933 95.8119C173.916 95.8119 173.02 95.6024 172.244 95.1834C171.468 94.7644 170.863 94.1256 170.43 93.267C169.998 92.4085 169.781 91.3267 169.781 90.0216C169.781 88.6548 170.008 87.5386 170.461 86.6732C170.922 85.8009 171.553 85.1552 172.357 84.7362C173.161 84.3173 174.074 84.1078 175.098 84.1078C175.661 84.1078 176.203 84.1662 176.725 84.2829C177.254 84.3928 177.687 84.5336 178.024 84.7053L177.508 86.1374C177.165 86.0001 176.767 85.8764 176.313 85.7665C175.867 85.6566 175.448 85.6017 175.056 85.6017C174.273 85.6017 173.621 85.77 173.099 86.1065C172.584 86.4431 172.196 86.9376 171.935 87.5902C171.68 88.2427 171.553 89.0463 171.553 90.001C171.553 90.9146 171.677 91.6941 171.924 92.3398C172.178 92.9854 172.553 93.48 173.047 93.8234C173.549 94.16 174.174 94.3282 174.922 94.3282C175.52 94.3282 176.059 94.2664 176.54 94.1428C177.021 94.0123 177.457 93.8612 177.848 93.6895V95.2143C177.471 95.4066 177.048 95.5543 176.581 95.6573C176.121 95.7603 175.572 95.8119 174.933 95.8119ZM182.238 84.3138V95.6058H180.527V84.3138H182.238ZM181.403 80.0896C181.685 80.0896 181.925 80.1824 182.124 80.3678C182.33 80.5464 182.433 80.828 182.433 81.2127C182.433 81.5904 182.33 81.872 182.124 82.0575C181.925 82.2429 181.685 82.3357 181.403 82.3357C181.108 82.3357 180.86 82.2429 180.661 82.0575C180.469 81.872 180.373 81.5904 180.373 81.2127C180.373 80.828 180.469 80.5464 180.661 80.3678C180.86 80.1824 181.108 80.0896 181.403 80.0896ZM195.6 89.9392C195.6 90.8665 195.48 91.6941 195.24 92.4222C194.999 93.1503 194.653 93.765 194.199 94.2664C193.746 94.7678 193.196 95.1525 192.551 95.4204C191.912 95.6814 191.187 95.8119 190.377 95.8119C189.621 95.8119 188.928 95.6814 188.296 95.4204C187.671 95.1525 187.128 94.7678 186.668 94.2664C186.214 93.765 185.861 93.1503 185.607 92.4222C185.359 91.6941 185.236 90.8665 185.236 89.9392C185.236 88.7029 185.445 87.652 185.864 86.7865C186.283 85.9142 186.881 85.2514 187.657 84.7981C188.44 84.3379 189.371 84.1078 190.449 84.1078C191.479 84.1078 192.379 84.3379 193.148 84.7981C193.924 85.2583 194.525 85.9245 194.951 86.7968C195.384 87.6623 195.6 88.7097 195.6 89.9392ZM187.008 89.9392C187.008 90.8459 187.128 91.6323 187.368 92.2986C187.609 92.9648 187.98 93.48 188.481 93.844C188.982 94.208 189.628 94.3901 190.418 94.3901C191.201 94.3901 191.843 94.208 192.345 93.844C192.853 93.48 193.227 92.9648 193.468 92.2986C193.708 91.6323 193.828 90.8459 193.828 89.9392C193.828 89.0394 193.708 88.2633 193.468 87.6108C193.227 86.9514 192.856 86.4431 192.355 86.0859C191.854 85.7288 191.204 85.5502 190.408 85.5502C189.233 85.5502 188.371 85.9383 187.822 86.7144C187.279 87.4906 187.008 88.5655 187.008 89.9392ZM203.905 84.1078C205.244 84.1078 206.257 84.4375 206.944 85.0969C207.631 85.7494 207.974 86.8003 207.974 88.2495V95.6058H206.284V88.3629C206.284 87.4219 206.068 86.7178 205.635 86.2508C205.21 85.7837 204.554 85.5502 203.668 85.5502C202.417 85.5502 201.538 85.9039 201.03 86.6114C200.522 87.3188 200.268 88.3457 200.268 89.6919V95.6058H198.557V84.3138H199.938L200.195 85.9417H200.288C200.529 85.5433 200.834 85.2102 201.205 84.9423C201.576 84.6676 201.992 84.4615 202.452 84.3241C202.912 84.1799 203.396 84.1078 203.905 84.1078ZM215.846 84.1078C216.807 84.1078 217.631 84.3207 218.318 84.7466C219.005 85.1724 219.531 85.77 219.895 86.5393C220.259 87.3017 220.441 88.1946 220.441 89.218V90.2792H212.641C212.662 91.6048 212.992 92.6145 213.63 93.3083C214.269 94.002 215.169 94.3489 216.33 94.3489C217.044 94.3489 217.676 94.2836 218.226 94.1531C218.775 94.0226 219.345 93.8303 219.936 93.5761V95.0804C219.366 95.3345 218.799 95.5199 218.236 95.6367C217.679 95.7535 217.02 95.8119 216.258 95.8119C215.172 95.8119 214.225 95.5921 213.414 95.1525C212.61 94.706 211.985 94.0535 211.539 93.1949C211.092 92.3364 210.869 91.2855 210.869 90.0422C210.869 88.8265 211.072 87.7756 211.477 86.8896C211.889 85.9966 212.466 85.3098 213.208 84.829C213.957 84.3482 214.836 84.1078 215.846 84.1078ZM215.825 85.509C214.911 85.509 214.183 85.8078 213.641 86.4053C213.098 87.0029 212.775 87.8374 212.672 88.9089H218.648C218.641 88.2358 218.535 87.6451 218.329 87.1368C218.129 86.6217 217.824 86.2233 217.412 85.9417C216.999 85.6532 216.471 85.509 215.825 85.509ZM230.651 92.5149C230.651 93.2361 230.469 93.844 230.105 94.3385C229.748 94.8262 229.232 95.1937 228.559 95.441C227.893 95.6882 227.096 95.8119 226.169 95.8119C225.379 95.8119 224.696 95.75 224.119 95.6264C223.542 95.5028 223.037 95.3276 222.604 95.101V93.5246C223.064 93.7513 223.614 93.9573 224.253 94.1428C224.892 94.3282 225.544 94.421 226.21 94.421C227.186 94.421 227.893 94.263 228.333 93.947C228.772 93.6311 228.992 93.2018 228.992 92.6592C228.992 92.3501 228.903 92.0788 228.724 91.8452C228.552 91.6048 228.261 91.3747 227.848 91.155C227.436 90.9283 226.866 90.681 226.138 90.4131C225.417 90.1384 224.792 89.8671 224.263 89.5992C223.741 89.3245 223.336 88.9913 223.047 88.5998C222.766 88.2083 222.625 87.7 222.625 87.075C222.625 86.1203 223.01 85.3888 223.779 84.8805C224.555 84.3653 225.572 84.1078 226.828 84.1078C227.508 84.1078 228.144 84.1765 228.734 84.3138C229.332 84.4443 229.888 84.6229 230.404 84.8496L229.827 86.2199C229.36 86.0207 228.862 85.8524 228.333 85.715C227.804 85.5777 227.265 85.509 226.715 85.509C225.925 85.509 225.317 85.6395 224.892 85.9005C224.473 86.1615 224.263 86.5187 224.263 86.972C224.263 87.3223 224.359 87.6108 224.552 87.8374C224.751 88.0641 225.067 88.277 225.499 88.4762C225.932 88.6754 226.502 88.9089 227.21 89.1768C227.917 89.4378 228.528 89.7091 229.044 89.9907C229.559 90.2655 229.954 90.602 230.228 91.0004C230.51 91.3919 230.651 91.8968 230.651 92.5149ZM240.593 84.3138V95.6058H238.883V84.3138H240.593ZM239.759 80.0896C240.04 80.0896 240.281 80.1824 240.48 80.3678C240.686 80.5464 240.789 80.828 240.789 81.2127C240.789 81.5904 240.686 81.872 240.48 82.0575C240.281 82.2429 240.04 82.3357 239.759 82.3357C239.463 82.3357 239.216 82.2429 239.017 82.0575C238.824 81.872 238.728 81.5904 238.728 81.2127C238.728 80.828 238.824 80.5464 239.017 80.3678C239.216 80.1824 239.463 80.0896 239.759 80.0896ZM249.567 84.1078C250.906 84.1078 251.919 84.4375 252.606 85.0969C253.293 85.7494 253.637 86.8003 253.637 88.2495V95.6058H251.947V88.3629C251.947 87.4219 251.731 86.7178 251.298 86.2508C250.872 85.7837 250.216 85.5502 249.33 85.5502C248.08 85.5502 247.201 85.9039 246.692 86.6114C246.184 87.3188 245.93 88.3457 245.93 89.6919V95.6058H244.22V84.3138H245.6L245.858 85.9417H245.951C246.191 85.5433 246.497 85.2102 246.868 84.9423C247.238 84.6676 247.654 84.4615 248.114 84.3241C248.574 84.1799 249.059 84.1078 249.567 84.1078ZM262.507 84.1078C263.847 84.1078 264.86 84.4375 265.547 85.0969C266.234 85.7494 266.577 86.8003 266.577 88.2495V95.6058H264.887V88.3629C264.887 87.4219 264.671 86.7178 264.238 86.2508C263.812 85.7837 263.156 85.5502 262.27 85.5502C261.02 85.5502 260.141 85.9039 259.633 86.6114C259.125 87.3188 258.87 88.3457 258.87 89.6919V95.6058H257.16V84.3138H258.541L258.798 85.9417H258.891C259.131 85.5433 259.437 85.2102 259.808 84.9423C260.179 84.6676 260.594 84.4615 261.055 84.3241C261.515 84.1799 261.999 84.1078 262.507 84.1078ZM279.837 89.9392C279.837 90.8665 279.717 91.6941 279.476 92.4222C279.236 93.1503 278.889 93.765 278.436 94.2664C277.982 94.7678 277.433 95.1525 276.787 95.4204C276.148 95.6814 275.424 95.8119 274.613 95.8119C273.858 95.8119 273.164 95.6814 272.532 95.4204C271.907 95.1525 271.364 94.7678 270.904 94.2664C270.451 93.765 270.097 93.1503 269.843 92.4222C269.596 91.6941 269.472 90.8665 269.472 89.9392C269.472 88.7029 269.682 87.652 270.101 86.7865C270.52 85.9142 271.117 85.2514 271.893 84.7981C272.676 84.3379 273.607 84.1078 274.685 84.1078C275.716 84.1078 276.615 84.3379 277.385 84.7981C278.161 85.2583 278.762 85.9245 279.188 86.7968C279.62 87.6623 279.837 88.7097 279.837 89.9392ZM271.244 89.9392C271.244 90.8459 271.364 91.6323 271.605 92.2986C271.845 92.9648 272.216 93.48 272.718 93.844C273.219 94.208 273.865 94.3901 274.654 94.3901C275.438 94.3901 276.08 94.208 276.581 93.844C277.089 93.48 277.464 92.9648 277.704 92.2986C277.945 91.6323 278.065 90.8459 278.065 89.9392C278.065 89.0394 277.945 88.2633 277.704 87.6108C277.464 86.9514 277.093 86.4431 276.591 86.0859C276.09 85.7288 275.441 85.5502 274.644 85.5502C273.47 85.5502 272.608 85.9383 272.058 86.7144C271.516 87.4906 271.244 88.5655 271.244 89.9392ZM285.277 95.6058L280.991 84.3138H282.825L285.308 91.1447C285.479 91.6117 285.655 92.1269 285.833 92.6901C286.012 93.2533 286.135 93.7066 286.204 94.0501H286.276C286.359 93.7066 286.496 93.2533 286.688 92.6901C286.881 92.12 287.056 91.6048 287.214 91.1447L289.697 84.3138H291.531L287.234 95.6058H285.277ZM297.568 84.1284C298.914 84.1284 299.914 84.4306 300.566 85.035C301.219 85.6395 301.545 86.6045 301.545 87.9301V95.6058H300.298L299.969 93.9367H299.886C299.57 94.3489 299.241 94.6957 298.897 94.9773C298.554 95.2521 298.155 95.4616 297.702 95.6058C297.256 95.7432 296.706 95.8119 296.054 95.8119C295.367 95.8119 294.755 95.6917 294.22 95.4513C293.691 95.2109 293.272 94.8468 292.963 94.3592C292.661 93.8715 292.509 93.2533 292.509 92.5046C292.509 91.3782 292.956 90.5127 293.849 89.9083C294.742 89.3039 296.102 88.9742 297.929 88.9192L299.876 88.8368V88.1465C299.876 87.1712 299.666 86.4877 299.248 86.0962C298.829 85.7047 298.238 85.509 297.475 85.509C296.885 85.509 296.321 85.5948 295.786 85.7665C295.25 85.9383 294.742 86.1409 294.261 86.3744L293.735 85.0762C294.244 84.8152 294.828 84.592 295.487 84.4066C296.146 84.2211 296.84 84.1284 297.568 84.1284ZM299.855 90.0422L298.135 90.1144C296.727 90.1693 295.734 90.3994 295.157 90.8047C294.58 91.2099 294.292 91.7834 294.292 92.5252C294.292 93.1709 294.488 93.6483 294.879 93.9573C295.271 94.2664 295.789 94.421 296.435 94.421C297.438 94.421 298.258 94.1428 298.897 93.5864C299.536 93.0301 299.855 92.1955 299.855 91.0828V90.0422ZM309.087 95.8119C307.658 95.8119 306.525 95.3242 305.687 94.3489C304.856 93.3735 304.44 91.9242 304.44 90.001C304.44 88.0572 304.866 86.5908 305.718 85.6017C306.569 84.6057 307.703 84.1078 309.118 84.1078C309.715 84.1078 310.237 84.1868 310.684 84.3447C311.13 84.5027 311.515 84.7156 311.838 84.9835C312.16 85.2445 312.432 85.5433 312.652 85.8799H312.775C312.748 85.6669 312.72 85.375 312.693 85.0041C312.665 84.6332 312.652 84.331 312.652 84.0975V79.5745H314.362V95.6058H312.981L312.724 93.9986H312.652C312.439 94.3351 312.167 94.6408 311.838 94.9155C311.515 95.1903 311.127 95.41 310.673 95.5749C310.227 95.7329 309.698 95.8119 309.087 95.8119ZM309.355 94.3901C310.564 94.3901 311.419 94.0466 311.92 93.3598C312.421 92.6729 312.672 91.6529 312.672 90.2998V89.9907C312.672 88.5552 312.432 87.4528 311.951 86.6835C311.477 85.9142 310.612 85.5296 309.355 85.5296C308.304 85.5296 307.517 85.9348 306.995 86.7453C306.473 87.5489 306.212 88.6479 306.212 90.0422C306.212 91.4297 306.47 92.5012 306.985 93.2567C307.507 94.0123 308.297 94.3901 309.355 94.3901ZM327.725 89.9392C327.725 90.8665 327.605 91.6941 327.364 92.4222C327.124 93.1503 326.777 93.765 326.324 94.2664C325.87 94.7678 325.321 95.1525 324.675 95.4204C324.036 95.6814 323.312 95.8119 322.501 95.8119C321.746 95.8119 321.052 95.6814 320.42 95.4204C319.795 95.1525 319.252 94.7678 318.792 94.2664C318.339 93.765 317.985 93.1503 317.731 92.4222C317.484 91.6941 317.36 90.8665 317.36 89.9392C317.36 88.7029 317.569 87.652 317.988 86.7865C318.407 85.9142 319.005 85.2514 319.781 84.7981C320.564 84.3379 321.495 84.1078 322.573 84.1078C323.604 84.1078 324.503 84.3379 325.273 84.7981C326.049 85.2583 326.65 85.9245 327.076 86.7968C327.508 87.6623 327.725 88.7097 327.725 89.9392ZM319.132 89.9392C319.132 90.8459 319.252 91.6323 319.493 92.2986C319.733 92.9648 320.104 93.48 320.605 93.844C321.107 94.208 321.752 94.3901 322.542 94.3901C323.325 94.3901 323.968 94.208 324.469 93.844C324.977 93.48 325.352 92.9648 325.592 92.2986C325.832 91.6323 325.953 90.8459 325.953 89.9392C325.953 89.0394 325.832 88.2633 325.592 87.6108C325.352 86.9514 324.981 86.4431 324.479 86.0859C323.978 85.7288 323.329 85.5502 322.532 85.5502C321.358 85.5502 320.496 85.9383 319.946 86.7144C319.403 87.4906 319.132 88.5655 319.132 89.9392ZM335.812 84.1078C336.039 84.1078 336.276 84.1215 336.523 84.149C336.771 84.1696 336.99 84.2005 337.183 84.2417L336.966 85.8284C336.781 85.7803 336.575 85.7425 336.348 85.715C336.122 85.6876 335.909 85.6738 335.709 85.6738C335.256 85.6738 334.827 85.7665 334.422 85.952C334.023 86.1306 333.673 86.3916 333.371 86.735C333.068 87.0716 332.832 87.4803 332.66 87.9611C332.488 88.435 332.402 88.9639 332.402 89.5477V95.6058H330.682V84.3138H332.103L332.289 86.395H332.361C332.595 85.976 332.876 85.5948 333.206 85.2514C333.536 84.9011 333.917 84.6229 334.349 84.4169C334.789 84.2108 335.277 84.1078 335.812 84.1078ZM343.54 84.1284C344.886 84.1284 345.885 84.4306 346.538 85.035C347.19 85.6395 347.517 86.6045 347.517 87.9301V95.6058H346.27L345.94 93.9367H345.858C345.542 94.3489 345.212 94.6957 344.869 94.9773C344.525 95.2521 344.127 95.4616 343.674 95.6058C343.227 95.7432 342.678 95.8119 342.025 95.8119C341.338 95.8119 340.727 95.6917 340.191 95.4513C339.662 95.2109 339.243 94.8468 338.934 94.3592C338.632 93.8715 338.481 93.2533 338.481 92.5046C338.481 91.3782 338.927 90.5127 339.82 89.9083C340.713 89.3039 342.073 88.9742 343.9 88.9192L345.848 88.8368V88.1465C345.848 87.1712 345.638 86.4877 345.219 86.0962C344.8 85.7047 344.209 85.509 343.447 85.509C342.856 85.509 342.293 85.5948 341.757 85.7665C341.222 85.9383 340.713 86.1409 340.232 86.3744L339.707 85.0762C340.215 84.8152 340.799 84.592 341.458 84.4066C342.118 84.2211 342.812 84.1284 343.54 84.1284ZM345.827 90.0422L344.106 90.1144C342.698 90.1693 341.706 90.3994 341.129 90.8047C340.552 91.2099 340.263 91.7834 340.263 92.5252C340.263 93.1709 340.459 93.6483 340.851 93.9573C341.242 94.2664 341.761 94.421 342.406 94.421C343.409 94.421 344.23 94.1428 344.869 93.5864C345.508 93.0301 345.827 92.1955 345.827 91.0828V90.0422ZM358.345 92.5149C358.345 93.2361 358.163 93.844 357.799 94.3385C357.442 94.8262 356.927 95.1937 356.253 95.441C355.587 95.6882 354.79 95.8119 353.863 95.8119C353.073 95.8119 352.39 95.75 351.813 95.6264C351.236 95.5028 350.731 95.3276 350.298 95.101V93.5246C350.759 93.7513 351.308 93.9573 351.947 94.1428C352.586 94.3282 353.238 94.421 353.904 94.421C354.88 94.421 355.587 94.263 356.027 93.947C356.466 93.6311 356.686 93.2018 356.686 92.6592C356.686 92.3501 356.597 92.0788 356.418 91.8452C356.247 91.6048 355.955 91.3747 355.543 91.155C355.13 90.9283 354.56 90.681 353.832 90.4131C353.111 90.1384 352.486 89.8671 351.957 89.5992C351.435 89.3245 351.03 88.9913 350.741 88.5998C350.46 88.2083 350.319 87.7 350.319 87.075C350.319 86.1203 350.704 85.3888 351.473 84.8805C352.249 84.3653 353.266 84.1078 354.523 84.1078C355.203 84.1078 355.838 84.1765 356.429 84.3138C357.026 84.4443 357.582 84.6229 358.098 84.8496L357.521 86.2199C357.054 86.0207 356.556 85.8524 356.027 85.715C355.498 85.5777 354.959 85.509 354.409 85.509C353.619 85.509 353.011 85.6395 352.586 85.9005C352.167 86.1615 351.957 86.5187 351.957 86.972C351.957 87.3223 352.053 87.6108 352.246 87.8374C352.445 88.0641 352.761 88.277 353.193 88.4762C353.626 88.6754 354.196 88.9089 354.904 89.1768C355.611 89.4378 356.223 89.7091 356.738 89.9907C357.253 90.2655 357.648 90.602 357.922 91.0004C358.204 91.3919 358.345 91.8968 358.345 92.5149Z" fill="white"/>
<path d="M41.3815 2.40199C29.0328 6.2725 22.9505 10.3273 13.9193 20.28C-3.77441 40.0012 -4.69595 68.0163 11.7076 90.5021C20.0016 101.561 36.9581 110.223 53.3617 111.698C66.4476 112.988 67.7378 109.855 55.2048 107.827C35.2993 104.694 17.4212 93.2667 9.86452 78.7063C8.20574 75.3887 6.73126 68.2006 6.54695 62.487L6.36264 52.35L26.4524 41.8443C37.511 36.1307 49.6755 28.2054 53.7303 24.3349C60.5497 17.6997 65.8947 5.35094 63.4987 1.66475C62.0242 -0.915588 50.4127 -0.362663 41.3815 2.40199Z" fill="white"/>
<path fill-rule="evenodd" clip-rule="evenodd" d="M92.0523 41.7584C92.0523 44.6728 89.8025 47.0845 86.8887 47.1465C84.3772 47.1999 82.2663 45.4441 81.6694 43.1054H77.2351L77.0421 53.9137C77.0246 54.8929 76.2257 55.6776 75.2463 55.6776H47.329C47.329 55.6776 46.2065 55.6776 46.2065 53.8816C46.2065 52.0856 47.329 52.0856 47.329 52.0856H73.4185V41.7584C73.4185 40.7665 74.2226 39.9624 75.2145 39.9624H81.8049C82.5429 37.8518 84.5407 36.3204 86.8887 36.3703C89.8025 36.4323 92.0523 38.844 92.0523 41.7584ZM84.8682 41.7584C84.8682 40.7027 85.8348 39.9004 86.8887 39.9624C87.8789 40.0206 88.6847 40.7665 88.6847 41.7584C88.6847 42.7503 87.8789 43.4962 86.8887 43.5544C85.8348 43.6164 84.8682 42.8142 84.8682 41.7584Z" fill="white"/>
<path fill-rule="evenodd" clip-rule="evenodd" d="M98.1139 59.7658C102.207 59.7658 105.298 63.3053 105.298 67.3989C105.298 71.4924 102.207 75.032 98.1139 75.032C94.7953 75.032 92.1358 72.7057 91.2479 69.6439H22.6808C22.6808 69.6439 21.1092 69.6439 21.1092 67.1744C21.1092 64.7048 22.6808 64.7048 22.6808 64.7048H91.3926C92.4007 61.8675 94.9595 59.7658 98.1139 59.7658ZM100.808 67.3989C100.808 65.911 99.6003 64.6402 98.1139 64.7048C96.688 64.7668 95.6443 65.9716 95.6443 67.3989C95.6443 68.8261 96.688 70.0309 98.1139 70.0929C99.6003 70.1575 100.808 68.8867 100.808 67.3989Z" fill="white"/>
<path fill-rule="evenodd" clip-rule="evenodd" d="M71.1264 85.8081C74.0993 85.6789 76.5145 88.2205 76.5145 91.1962C76.5145 94.172 74.0993 96.7136 71.1264 96.5843C68.9007 96.4875 67.1406 94.9984 66.4751 92.9922H59.9012C58.9093 92.9922 58.1052 92.1881 58.1052 91.1962V80.8691H33.8589C33.8589 80.8691 32.1678 80.8691 32.1678 79.2975C32.1678 77.726 33.8589 77.726 33.8589 77.726H59.4522C60.4441 77.726 61.2483 78.5301 61.2483 79.522V89.8492H66.3467C66.8851 87.6197 68.7376 85.912 71.1264 85.8081ZM72.9224 91.1962C72.9224 90.2642 72.2756 89.5167 71.3509 89.4002C70.3034 89.2682 69.3304 90.1405 69.3304 91.1962C69.3304 92.252 70.3034 93.1242 71.3509 92.9922C72.2756 92.8757 72.9224 92.1282 72.9224 91.1962Z" fill="white"/>
</svg>
